<svg width="29" height="38" viewBox="0 0 29 38" fill="none" xmlns="http://www.w3.org/2000/svg">
<path d="M3 16.5C1.61929 16.5 0.5 17.6193 0.5 19C0.5 20.3807 1.61929 21.5 3 21.5V16.5ZM27.7678 20.7678C28.7441 19.7915 28.7441 18.2085 27.7678 17.2322L11.8579 1.32233C10.8816 0.34602 9.29864 0.34602 8.32233 1.32233C7.34602 2.29864 7.34602 3.88155 8.32233 4.85786L22.4645 19L8.32233 33.1421C7.34602 34.1184 7.34602 35.7014 8.32233 36.6777C9.29864 37.654 10.8816 37.654 11.8579 36.6777L27.7678 20.7678ZM3 21.5H26V16.5H3V21.5Z" fill="#382370"/>
</svg>
