<svg width="85" height="74" viewBox="0 0 85 74" fill="none" xmlns="http://www.w3.org/2000/svg">
<path d="M0 0H3.78277V47.1244L3.76824 74H0V22.8928V9.93896V0Z" fill="#382370"/>
<path fill-rule="evenodd" clip-rule="evenodd" d="M13.1254 47.2917L3.78268 47.2957C7.6783 47.2957 8.55881 46.7228 11.7828 45.5848C15.0067 44.4469 17.7605 42.8403 20.0442 40.7653C22.3278 38.6902 24.1077 36.1465 25.3838 33.1343C26.66 30.0552 27.298 26.6413 27.298 22.8928C27.298 19.3451 26.5256 16.1655 24.9808 13.3541C23.5032 10.4758 21.5218 8.03256 19.0367 6.02442C16.6187 4.01628 15.1724 3.44186 12.069 1.72093C9.82759 0.688372 8.35769 0.180631 5.73456 0.041554C5.21206 0.0138513 4.30713 0 3.78277 0H13.4277C13.952 0 14.4755 0.0138513 14.998 0.041554C18.6207 0.516279 19.1864 0.668815 21.7628 1.50611C24.8524 2.51018 28.6407 4.01628 31.0587 6.02442C33.5438 8.03256 35.5252 10.4758 37.0028 13.3541C38.5477 16.1655 39.3201 19.3451 39.3201 22.8928C39.3201 26.6413 38.682 30.0552 37.4058 33.1343C36.1297 36.1465 34.3498 38.6902 32.0662 40.7653C29.7825 42.8403 27.0287 44.4469 23.8048 45.5848C20.5808 46.7228 17.021 47.2917 13.1254 47.2917Z" fill="#382370"/>
<path d="M57.7428 0V70.2582H77.2335H85V74H46.4859V0H57.7428Z" fill="#382370"/>
</svg>
